<mxfile host="app.diagrams.net" modified="2022-01-31T15:27:37.550Z" agent="5.0 (Windows NT 10.0; Win64; x64) AppleWebKit/537.36 (KHTML, like Gecko) Chrome/97.0.4692.99 Safari/537.36" etag="XKu5VlAeaeoVFkxQc6cd" version="16.1.2" type="github">
  <diagram id="_Y9WY0_CFH1RVe-6ggP1" name="Page-1">
    <mxGraphModel dx="1273" dy="1878" grid="1" gridSize="10" guides="1" tooltips="1" connect="1" arrows="1" fold="1" page="1" pageScale="1" pageWidth="827" pageHeight="1169" math="0" shadow="0">
      <root>
        <mxCell id="0" />
        <mxCell id="1" parent="0" />
        <mxCell id="z2sOyKLHP9V1bf1uFPsz-11" style="edgeStyle=orthogonalEdgeStyle;rounded=0;orthogonalLoop=1;jettySize=auto;html=1;exitX=0.5;exitY=1;exitDx=0;exitDy=0;entryX=0.5;entryY=0;entryDx=0;entryDy=0;" edge="1" parent="1" source="z2sOyKLHP9V1bf1uFPsz-1" target="z2sOyKLHP9V1bf1uFPsz-2">
          <mxGeometry relative="1" as="geometry" />
        </mxCell>
        <mxCell id="z2sOyKLHP9V1bf1uFPsz-1" value="R" style="ellipse;whiteSpace=wrap;html=1;aspect=fixed;" vertex="1" parent="1">
          <mxGeometry x="200" y="276" width="40" height="40" as="geometry" />
        </mxCell>
        <mxCell id="z2sOyKLHP9V1bf1uFPsz-12" style="edgeStyle=orthogonalEdgeStyle;rounded=0;orthogonalLoop=1;jettySize=auto;html=1;exitX=0.5;exitY=1;exitDx=0;exitDy=0;" edge="1" parent="1" source="z2sOyKLHP9V1bf1uFPsz-2" target="z2sOyKLHP9V1bf1uFPsz-3">
          <mxGeometry relative="1" as="geometry" />
        </mxCell>
        <mxCell id="z2sOyKLHP9V1bf1uFPsz-2" value="A" style="ellipse;whiteSpace=wrap;html=1;aspect=fixed;" vertex="1" parent="1">
          <mxGeometry x="200" y="340" width="40" height="40" as="geometry" />
        </mxCell>
        <mxCell id="z2sOyKLHP9V1bf1uFPsz-3" value="L" style="ellipse;whiteSpace=wrap;html=1;aspect=fixed;fillColor=#d5e8d4;strokeColor=#82b366;" vertex="1" parent="1">
          <mxGeometry x="200" y="410" width="40" height="40" as="geometry" />
        </mxCell>
        <mxCell id="z2sOyKLHP9V1bf1uFPsz-10" style="edgeStyle=orthogonalEdgeStyle;rounded=0;orthogonalLoop=1;jettySize=auto;html=1;exitX=0.5;exitY=1;exitDx=0;exitDy=0;entryX=0.5;entryY=0;entryDx=0;entryDy=0;" edge="1" parent="1" source="z2sOyKLHP9V1bf1uFPsz-4" target="z2sOyKLHP9V1bf1uFPsz-5">
          <mxGeometry relative="1" as="geometry" />
        </mxCell>
        <mxCell id="z2sOyKLHP9V1bf1uFPsz-4" value="S" style="ellipse;whiteSpace=wrap;html=1;aspect=fixed;" vertex="1" parent="1">
          <mxGeometry x="280" y="276" width="40" height="40" as="geometry" />
        </mxCell>
        <mxCell id="z2sOyKLHP9V1bf1uFPsz-7" style="edgeStyle=orthogonalEdgeStyle;rounded=0;orthogonalLoop=1;jettySize=auto;html=1;exitX=0.5;exitY=1;exitDx=0;exitDy=0;" edge="1" parent="1" source="z2sOyKLHP9V1bf1uFPsz-5" target="z2sOyKLHP9V1bf1uFPsz-6">
          <mxGeometry relative="1" as="geometry" />
        </mxCell>
        <mxCell id="z2sOyKLHP9V1bf1uFPsz-5" value="I" style="ellipse;whiteSpace=wrap;html=1;aspect=fixed;" vertex="1" parent="1">
          <mxGeometry x="280" y="340" width="40" height="40" as="geometry" />
        </mxCell>
        <mxCell id="z2sOyKLHP9V1bf1uFPsz-6" value="S" style="ellipse;whiteSpace=wrap;html=1;aspect=fixed;fillColor=#d5e8d4;strokeColor=#82b366;" vertex="1" parent="1">
          <mxGeometry x="280" y="410" width="40" height="40" as="geometry" />
        </mxCell>
        <mxCell id="z2sOyKLHP9V1bf1uFPsz-14" style="edgeStyle=orthogonalEdgeStyle;rounded=0;orthogonalLoop=1;jettySize=auto;html=1;exitX=0.5;exitY=1;exitDx=0;exitDy=0;entryX=0.5;entryY=0;entryDx=0;entryDy=0;" edge="1" parent="1" source="z2sOyKLHP9V1bf1uFPsz-15" target="z2sOyKLHP9V1bf1uFPsz-17">
          <mxGeometry relative="1" as="geometry" />
        </mxCell>
        <mxCell id="z2sOyKLHP9V1bf1uFPsz-15" value="E" style="ellipse;whiteSpace=wrap;html=1;aspect=fixed;" vertex="1" parent="1">
          <mxGeometry x="240" y="70" width="40" height="40" as="geometry" />
        </mxCell>
        <mxCell id="z2sOyKLHP9V1bf1uFPsz-16" style="edgeStyle=orthogonalEdgeStyle;rounded=0;orthogonalLoop=1;jettySize=auto;html=1;exitX=0.5;exitY=1;exitDx=0;exitDy=0;" edge="1" parent="1" source="z2sOyKLHP9V1bf1uFPsz-17" target="z2sOyKLHP9V1bf1uFPsz-18">
          <mxGeometry relative="1" as="geometry" />
        </mxCell>
        <mxCell id="z2sOyKLHP9V1bf1uFPsz-17" value="N" style="ellipse;whiteSpace=wrap;html=1;aspect=fixed;" vertex="1" parent="1">
          <mxGeometry x="240" y="140" width="40" height="40" as="geometry" />
        </mxCell>
        <mxCell id="z2sOyKLHP9V1bf1uFPsz-18" value="E" style="ellipse;whiteSpace=wrap;html=1;aspect=fixed;" vertex="1" parent="1">
          <mxGeometry x="240" y="210" width="40" height="40" as="geometry" />
        </mxCell>
        <mxCell id="z2sOyKLHP9V1bf1uFPsz-20" value="G" style="ellipse;whiteSpace=wrap;html=1;aspect=fixed;" vertex="1" parent="1">
          <mxGeometry x="300" width="40" height="40" as="geometry" />
        </mxCell>
        <mxCell id="z2sOyKLHP9V1bf1uFPsz-26" value="" style="endArrow=classic;html=1;rounded=0;entryX=0.5;entryY=0;entryDx=0;entryDy=0;exitX=0;exitY=1;exitDx=0;exitDy=0;" edge="1" parent="1" source="z2sOyKLHP9V1bf1uFPsz-18" target="z2sOyKLHP9V1bf1uFPsz-1">
          <mxGeometry width="50" height="50" relative="1" as="geometry">
            <mxPoint x="260" y="280" as="sourcePoint" />
            <mxPoint x="310" y="230" as="targetPoint" />
          </mxGeometry>
        </mxCell>
        <mxCell id="z2sOyKLHP9V1bf1uFPsz-27" value="" style="endArrow=classic;html=1;rounded=0;entryX=0.5;entryY=0;entryDx=0;entryDy=0;exitX=1;exitY=1;exitDx=0;exitDy=0;" edge="1" parent="1" source="z2sOyKLHP9V1bf1uFPsz-18" target="z2sOyKLHP9V1bf1uFPsz-4">
          <mxGeometry width="50" height="50" relative="1" as="geometry">
            <mxPoint x="256" y="232" as="sourcePoint" />
            <mxPoint x="230.00000000000006" y="286" as="targetPoint" />
          </mxGeometry>
        </mxCell>
        <mxCell id="z2sOyKLHP9V1bf1uFPsz-29" value="O" style="ellipse;whiteSpace=wrap;html=1;aspect=fixed;fillColor=#d5e8d4;strokeColor=#82b366;" vertex="1" parent="1">
          <mxGeometry x="360" y="70" width="40" height="40" as="geometry" />
        </mxCell>
        <mxCell id="z2sOyKLHP9V1bf1uFPsz-30" value="" style="endArrow=classic;html=1;rounded=0;entryX=0.5;entryY=0;entryDx=0;entryDy=0;exitX=1;exitY=1;exitDx=0;exitDy=0;" edge="1" parent="1" source="z2sOyKLHP9V1bf1uFPsz-20" target="z2sOyKLHP9V1bf1uFPsz-29">
          <mxGeometry width="50" height="50" relative="1" as="geometry">
            <mxPoint x="334.14213562373095" y="0.00213562373107834" as="sourcePoint" />
            <mxPoint x="360" y="41.860000000000014" as="targetPoint" />
          </mxGeometry>
        </mxCell>
        <mxCell id="z2sOyKLHP9V1bf1uFPsz-31" value="" style="endArrow=classic;html=1;rounded=0;entryX=0.5;entryY=0;entryDx=0;entryDy=0;exitX=0;exitY=1;exitDx=0;exitDy=0;" edge="1" parent="1" source="z2sOyKLHP9V1bf1uFPsz-20" target="z2sOyKLHP9V1bf1uFPsz-15">
          <mxGeometry width="50" height="50" relative="1" as="geometry">
            <mxPoint x="294.14213562373095" y="254.14213562373106" as="sourcePoint" />
            <mxPoint x="320" y="296" as="targetPoint" />
          </mxGeometry>
        </mxCell>
        <mxCell id="z2sOyKLHP9V1bf1uFPsz-32" value="D" style="ellipse;whiteSpace=wrap;html=1;aspect=fixed;fillColor=#d5e8d4;strokeColor=#82b366;" vertex="1" parent="1">
          <mxGeometry x="330" y="140" width="40" height="40" as="geometry" />
        </mxCell>
        <mxCell id="z2sOyKLHP9V1bf1uFPsz-39" style="edgeStyle=orthogonalEdgeStyle;rounded=0;orthogonalLoop=1;jettySize=auto;html=1;exitX=0.5;exitY=1;exitDx=0;exitDy=0;entryX=0.5;entryY=0;entryDx=0;entryDy=0;" edge="1" parent="1" source="z2sOyKLHP9V1bf1uFPsz-33" target="z2sOyKLHP9V1bf1uFPsz-38">
          <mxGeometry relative="1" as="geometry" />
        </mxCell>
        <mxCell id="z2sOyKLHP9V1bf1uFPsz-33" value="O" style="ellipse;whiteSpace=wrap;html=1;aspect=fixed;" vertex="1" parent="1">
          <mxGeometry x="394" y="140" width="40" height="40" as="geometry" />
        </mxCell>
        <mxCell id="z2sOyKLHP9V1bf1uFPsz-36" value="" style="endArrow=classic;html=1;rounded=0;entryX=0.5;entryY=0;entryDx=0;entryDy=0;exitX=1;exitY=1;exitDx=0;exitDy=0;" edge="1" parent="1" source="z2sOyKLHP9V1bf1uFPsz-29" target="z2sOyKLHP9V1bf1uFPsz-33">
          <mxGeometry width="50" height="50" relative="1" as="geometry">
            <mxPoint x="344.14213562373106" y="4.142135623731065" as="sourcePoint" />
            <mxPoint x="390" y="50" as="targetPoint" />
          </mxGeometry>
        </mxCell>
        <mxCell id="z2sOyKLHP9V1bf1uFPsz-37" value="" style="endArrow=classic;html=1;rounded=0;entryX=0.5;entryY=0;entryDx=0;entryDy=0;exitX=0;exitY=1;exitDx=0;exitDy=0;" edge="1" parent="1" source="z2sOyKLHP9V1bf1uFPsz-29" target="z2sOyKLHP9V1bf1uFPsz-32">
          <mxGeometry width="50" height="50" relative="1" as="geometry">
            <mxPoint x="404.1421356237365" y="84.1421356237363" as="sourcePoint" />
            <mxPoint x="424" y="130" as="targetPoint" />
          </mxGeometry>
        </mxCell>
        <mxCell id="z2sOyKLHP9V1bf1uFPsz-38" value="D" style="ellipse;whiteSpace=wrap;html=1;aspect=fixed;fillColor=#d5e8d4;strokeColor=#82b366;" vertex="1" parent="1">
          <mxGeometry x="394" y="200" width="40" height="40" as="geometry" />
        </mxCell>
        <mxCell id="z2sOyKLHP9V1bf1uFPsz-44" style="edgeStyle=orthogonalEdgeStyle;rounded=0;orthogonalLoop=1;jettySize=auto;html=1;exitX=0.5;exitY=1;exitDx=0;exitDy=0;entryX=0.5;entryY=0;entryDx=0;entryDy=0;" edge="1" parent="1" source="z2sOyKLHP9V1bf1uFPsz-40" target="z2sOyKLHP9V1bf1uFPsz-20">
          <mxGeometry relative="1" as="geometry" />
        </mxCell>
        <mxCell id="z2sOyKLHP9V1bf1uFPsz-40" value="" style="ellipse;whiteSpace=wrap;html=1;aspect=fixed;" vertex="1" parent="1">
          <mxGeometry x="300" y="-70" width="40" height="40" as="geometry" />
        </mxCell>
        <mxCell id="z2sOyKLHP9V1bf1uFPsz-45" value="&lt;p style=&quot;line-height: 1.4&quot;&gt;&lt;/p&gt;&lt;blockquote style=&quot;margin: 0 0 0 40px ; border: none ; padding: 0px&quot;&gt;&lt;/blockquote&gt;&lt;span style=&quot;background-color: rgb(255 , 255 , 255) ; font-family: &amp;#34;consolas&amp;#34; , &amp;#34;courier new&amp;#34; , monospace&quot;&gt;&lt;div&gt;gennral&lt;/div&gt;&lt;/span&gt;&lt;span style=&quot;background-color: rgb(255 , 255 , 255) ; font-family: &amp;#34;consolas&amp;#34; , &amp;#34;courier new&amp;#34; , monospace&quot;&gt;&lt;div&gt;genesis&lt;/div&gt;&lt;/span&gt;&lt;span style=&quot;background-color: rgb(255 , 255 , 255) ; font-family: &amp;#34;consolas&amp;#34; , &amp;#34;courier new&amp;#34; , monospace&quot;&gt;&lt;div&gt;god&lt;/div&gt;&lt;/span&gt;&lt;span style=&quot;background-color: rgb(255 , 255 , 255) ; font-family: &amp;#34;consolas&amp;#34; , &amp;#34;courier new&amp;#34; , monospace&quot;&gt;&lt;div&gt;go&lt;/div&gt;&lt;/span&gt;&lt;div style=&quot;background-color: rgb(255 , 255 , 255) ; font-family: &amp;#34;consolas&amp;#34; , &amp;#34;courier new&amp;#34; , monospace ; line-height: 19px ; font-size: 25px&quot;&gt;&lt;font style=&quot;font-size: 25px&quot;&gt;good&lt;/font&gt;&lt;/div&gt;&lt;blockquote style=&quot;margin: 0 0 0 40px ; border: none ; padding: 0px&quot;&gt;&lt;/blockquote&gt;&lt;blockquote style=&quot;margin: 0 0 0 40px ; border: none ; padding: 0px&quot;&gt;&lt;/blockquote&gt;&lt;blockquote style=&quot;margin: 0 0 0 40px ; border: none ; padding: 0px&quot;&gt;&lt;/blockquote&gt;&lt;p&gt;&lt;/p&gt;" style="text;html=1;strokeColor=none;fillColor=none;align=left;verticalAlign=middle;whiteSpace=wrap;rounded=0;fontSize=25;horizontal=1;perimeterSpacing=0;" vertex="1" parent="1">
          <mxGeometry x="490" y="10" width="90" height="190" as="geometry" />
        </mxCell>
      </root>
    </mxGraphModel>
  </diagram>
</mxfile>
